<svg width="1232" height="1232" viewBox="0 0 1232 1232" fill="none" xmlns="http://www.w3.org/2000/svg">
<rect width="1232" height="1232" fill="#FCEBD7"/>
<path d="M1004.82 410.108C1010.62 444.491 1015.15 475.357 1012.14 510.41C1010.02 535.123 1006.09 558.669 1007.12 583.56C1008.19 609.815 1022.63 628.954 1021.24 655.167C1020.5 669.993 1017.36 684.644 1011.9 698.674C1010.32 702.713 1005.9 711.038 1005.09 713.519C1004.3 719.03 999.169 726.312 996.202 731.301C972.047 771.885 932.524 810.804 877.972 813.519L875.891 813.853C866.157 816.174 856.07 818.809 846.005 819.497C842.295 819.752 827.896 820.601 825.447 819.163C815.841 818.902 808.187 816.762 799.302 814.047L797.139 813.292C786.605 825.482 780.621 832.404 765.473 840.87C757.146 845.999 744.418 851.89 734.804 855.207C674.16 875.937 609.977 875.783 548.025 860.677C479.94 844.073 453.806 801.322 422.494 748.814C413.476 732.939 405.284 714.228 398.541 697.43L393.349 682.464C371.756 615.526 363.35 557.27 363.224 487.358C370.45 495.361 371.892 505.549 382.432 515.282C425.207 554.779 490.053 569.854 549.035 578.381C604.982 585.895 673.588 585.561 729.382 576.534C741.259 574.6 753.054 572.285 764.742 569.59C769.499 568.463 785.414 564.255 789.349 563.887C798.25 560.276 807.654 557.835 816.524 553.915C820.731 552.059 828.309 548.526 832.703 547.897C839.155 544.713 845.539 541.872 852.126 538.927C864.677 534.937 873.788 532.058 887.33 531.366C901.263 531.319 904.763 531.193 918.253 533.871C921.13 512.347 917.487 448.41 908.534 428.73C914.46 426.895 920.416 425.141 926.402 423.469L928.671 422.871C932.96 421.633 946.314 419.856 951.234 419.002C968.832 415.952 987.362 413.743 1004.82 410.108Z" fill="#EBEAE8"/>
<path d="M1004.82 410.108C1010.62 444.491 1015.15 475.357 1012.14 510.41C1010.02 535.123 1006.09 558.669 1007.12 583.56C1008.19 609.815 1022.63 628.954 1021.24 655.167C1020.5 669.993 1017.36 684.644 1011.9 698.674C1010.31 702.713 1005.9 711.038 1005.09 713.519C1004.3 719.03 999.168 726.312 996.202 731.301C972.046 771.885 932.524 810.804 877.971 813.519L875.891 813.853C866.157 816.174 856.069 818.809 846.005 819.497C842.294 819.752 827.896 820.601 825.447 819.163C815.841 818.902 808.187 816.762 799.302 814.047L797.138 813.292C735.192 794.962 720.75 744.461 730.474 692.716C741.215 634.143 778.082 581.917 832.703 547.897C839.155 544.713 845.539 541.872 852.126 538.927C864.677 534.937 873.788 532.058 887.33 531.366C901.263 531.319 904.763 531.193 918.253 533.871C921.13 512.347 917.487 448.41 908.534 428.73C914.46 426.895 920.416 425.141 926.402 423.469L928.671 422.871C932.959 421.633 946.314 419.856 951.233 419.002C968.832 415.952 987.361 413.743 1004.82 410.108Z" fill="#C17B3E"/>
<path d="M887.33 531.366C901.263 531.319 904.763 531.193 918.253 533.871C917.427 537.412 914.137 552.6 912.529 555.124C911.928 556.875 910.809 561.041 910.749 562.928C895.615 600.266 875.726 613.172 849.535 642.976C819.168 677.542 798.077 735.4 819.371 777.234C825.049 788.589 833.935 796.119 845.201 803.241L848.296 804.552C854.868 809.968 875.711 811.981 877.971 813.519L875.891 813.853C866.157 816.174 856.069 818.809 846.005 819.497C842.294 819.751 827.896 820.601 825.447 819.163C815.841 818.902 808.187 816.762 799.302 814.047L797.138 813.292C735.192 794.962 720.75 744.461 730.474 692.715C741.215 634.143 778.082 581.917 832.703 547.897C839.155 544.713 845.539 541.872 852.126 538.927C864.677 534.937 873.788 532.058 887.33 531.366Z" fill="#3D2817"/>
<path d="M890.838 570.225C897.095 567.312 903.727 563.96 910.75 562.929C895.615 600.266 875.726 613.172 849.535 642.977C819.168 677.543 798.078 735.4 819.371 777.235C825.049 788.59 833.935 796.119 845.201 803.241L848.296 804.552C854.868 809.968 875.711 811.981 877.972 813.519L875.891 813.854C866.157 816.174 856.07 818.809 846.005 819.498C842.295 819.752 827.896 820.601 825.448 819.163C819.168 815.151 808.187 814.823 799.377 806.043C795.794 803.676 792.602 800.881 789.9 797.724C768.494 772.962 770.202 740.429 774.655 711.446C775.986 714.375 776.981 717.799 780.735 718.709C782.642 713.693 785.068 704.672 786.708 699.202C801.841 648.748 838.374 596.326 890.838 570.225Z" fill="#A0631F"/>
<path d="M890.838 570.225C897.094 567.312 903.727 563.96 910.749 562.929C895.615 600.266 875.726 613.172 849.535 642.977C819.168 677.543 798.077 735.4 819.371 777.235C825.049 788.59 833.935 796.119 845.201 803.241C844.12 805.354 843.023 807.454 841.904 809.554C816.359 799.389 805.265 777.402 800.766 754.117C795.02 710.871 815.758 663.988 846.343 631.207C864.82 611.42 883.154 596.356 890.838 570.225Z" fill="#3D2817"/>
<path d="M778.994 744.976C785.825 747.517 786.431 753.89 800.766 754.117C805.265 777.402 816.359 799.389 841.904 809.554C843.023 807.454 844.12 805.354 845.201 803.241L848.296 804.552C854.868 809.968 875.711 811.981 877.971 813.519L875.891 813.854C866.157 816.174 856.069 818.809 846.005 819.498C842.294 819.752 827.896 820.601 825.447 819.163C819.168 815.151 808.187 814.823 799.377 806.043C799.872 805.127 794.029 797.671 792.752 795.952C781.343 780.552 780.13 762.931 778.994 744.976Z" fill="#3D2817"/>
<path d="M845.201 803.241L848.296 804.552C854.868 809.968 875.711 811.981 877.972 813.519L875.891 813.853C862.874 814.402 854.072 813.258 841.904 809.554C843.023 807.454 844.12 805.354 845.201 803.241Z" fill="#4C3420"/>
<path d="M891.529 562.488L890.838 570.224C838.374 596.326 801.84 648.747 786.708 699.202C785.068 704.672 782.642 713.693 780.735 718.708C776.981 717.799 775.985 714.375 774.655 711.446C775.421 704.612 779.549 690.475 782.07 683.841C802.231 630.779 835.415 588.48 891.529 562.488Z" fill="#D4B896"/>
<path d="M912.529 555.124C911.929 556.875 910.809 561.04 910.749 562.928C903.727 563.959 897.095 567.312 890.838 570.224L891.529 562.488C898.634 559.468 904.876 556.932 912.529 555.124Z" fill="#6B4423"/>
<path d="M869.544 543.812C881.201 545.178 884.912 544.948 890.147 554.892C876.019 562.146 858.819 570.741 846.711 580.454C802.223 616.141 768.857 673.116 764.178 725.884C763.582 726.814 763.535 726.66 762.548 727.395C757.214 726.519 752.055 717.672 750.267 713.386C725.703 654.572 802.449 550.036 869.544 543.812Z" fill="#6B4423"/>
<path d="M857.94 725.282C867.381 688.282 892.25 652.934 928.303 632.03C949.994 619.444 986.009 611.647 1002.2 635.46C1013.27 651.757 1011.45 674.6 1006.94 692.602C1004.87 700.667 1001.12 708.557 997.591 716.134C996.502 718.468 992.694 725.971 992.221 728.057C996.3 725.135 1001.9 717.572 1005.09 713.519C1004.3 719.03 999.169 726.312 996.202 731.301C972.047 771.885 932.524 810.804 877.972 813.519C875.711 811.981 854.868 809.968 848.296 804.552C847.928 802.439 839.861 797.597 837.728 795.183C818.057 772.895 817.523 738.208 827.055 711.948C827.686 713.392 827.904 714.462 828.452 715.853C832.14 725.188 841.198 730.625 851.924 727.549C853.997 726.947 856.01 726.192 857.94 725.282Z" fill="#6B4423"/>
<path d="M827.055 711.948C827.686 713.392 827.904 714.462 828.452 715.853C832.14 725.188 841.198 730.625 851.924 727.549C853.997 726.947 856.01 726.191 857.94 725.282C852.6 747.503 853.058 776.914 877.656 790.061C905.965 802.224 938.908 784.303 958.647 766.301C971.1 757.474 982.697 739.292 992.221 728.057C996.3 725.135 1001.9 717.572 1005.09 713.519C1004.3 719.03 999.169 726.312 996.202 731.3C972.047 771.885 932.524 810.804 877.972 813.519C875.711 811.981 854.868 809.968 848.296 804.552C847.928 802.438 839.861 797.597 837.728 795.183C818.057 772.895 817.523 738.208 827.055 711.948Z" fill="#3D2817"/>
<path d="M857.94 725.282C867.381 688.282 892.25 652.934 928.302 632.03C949.994 619.444 986.009 611.647 1002.2 635.46C1013.27 651.757 1011.45 674.6 1006.94 692.602C1004.87 700.667 1001.12 708.557 997.591 716.134C996.502 718.468 992.694 725.971 992.221 728.057C982.697 739.292 971.1 757.474 958.647 766.301C957.039 766.876 957.039 766.923 955.334 767.063C957.054 765.291 957.445 764.863 958.632 762.764L958.895 762.289C986.843 735.587 1007.8 700.586 1007.66 663.359C1007.62 652.332 1003.57 638.356 993.723 631.361C964.693 610.751 921.272 637.045 901.713 657.461C876.281 684.016 857.827 718.107 859.231 753.482C860.043 768.093 866.081 778.224 877.205 788.529L877.656 790.061C853.057 776.914 852.599 747.504 857.94 725.282Z" fill="#D4B896"/>
<path d="M958.895 762.289L958.632 762.764C957.445 764.863 957.055 765.291 955.335 767.063C957.04 766.923 957.04 766.876 958.647 766.301C938.908 784.303 905.965 802.225 877.656 790.061L877.206 788.529C882.862 788.743 889.223 791.017 894.744 791.09C921.423 791.452 940.681 776.579 958.895 762.289Z" fill="#D4B896"/>
<path d="M947.275 659.347C999.702 654.993 972.039 741.739 917.404 754.211C903.794 756.003 892.528 750.111 889.674 737.78C885.64 720.313 893.737 702.218 904.222 687.72C914.467 673.563 928.528 662.857 947.275 659.347Z" fill="#3D2817"/>
<path d="M899.175 702.425C906.551 684.056 935.686 654.151 960.69 664.108C978.739 670.066 972.775 697.236 967.645 708.872C959.496 727.368 932.997 758.203 907.092 751.543C886.865 746.34 890.418 713.994 899.175 702.425Z" fill="#C17B3E"/>
<path d="M899.175 702.425C906.551 684.056 935.686 654.151 960.69 664.108C934.259 663.713 918.013 676.044 904.681 695.725C903.487 697.484 901.053 701.583 899.175 702.425Z" fill="#D4B896"/>
<path d="M908.533 428.73C914.46 426.895 920.416 425.141 926.402 423.469C929.527 438.054 931.202 454.558 932.208 468.899C935.4 514.446 930.443 564.221 900.414 602.758C877.521 632.143 845.967 654.605 833.259 690.101C831.291 695.578 828.098 700.894 828.707 706.919C828.354 709.38 828.309 709.754 827.054 711.948C817.523 738.208 818.056 772.895 837.728 795.183C839.861 797.597 847.927 802.438 848.295 804.552L845.201 803.241C833.935 796.119 825.049 788.589 819.371 777.234C798.077 735.4 819.168 677.542 849.535 642.976C875.725 613.172 895.615 600.266 910.749 562.928C910.809 561.041 911.928 556.875 912.529 555.124C914.137 552.6 917.426 537.412 918.253 533.871C921.129 512.347 917.487 448.409 908.533 428.73Z" fill="#A0631F"/>
<path d="M926.403 423.469L928.671 422.87C930.286 423.647 930.601 423.404 930.999 425.219C933.095 434.795 933.981 445.919 934.973 455.593C939.742 502.444 938.323 554.217 910.72 595.843C899.423 612.884 888.983 623.062 874.367 637.386C855.319 656.043 836.549 682.37 828.707 706.919C828.099 700.894 831.291 695.577 833.259 690.1C845.968 654.605 877.521 632.143 900.415 602.758C930.444 564.221 935.401 514.445 932.209 468.899C931.202 454.558 929.527 438.053 926.403 423.469Z" fill="#D4B896"/>
<path d="M789.349 563.887C798.25 560.276 807.654 557.835 816.524 553.915C820.73 552.059 828.309 548.526 832.703 547.897C778.082 581.917 741.215 634.143 730.474 692.715C720.75 744.461 735.192 794.962 797.138 813.292C786.605 825.482 780.621 832.404 765.473 840.87C763.321 839.612 758.475 837.981 755.888 837.024C708.097 819.384 697.316 767.391 700.123 726.151C704.585 660.584 734.632 607.648 789.349 563.887Z" fill="#D4CDC2"/>
<path d="M406.105 561.21C407.39 561.551 411.29 563.688 412.491 564.449C425.047 572.413 440.228 576.836 453.253 583.498C454.912 597.772 455.245 611.868 457.139 626.707C462.76 673.63 475.018 719.732 493.62 763.921C498.947 776.747 505.356 788.175 511.999 800.392C514.474 804.946 524.834 820.32 525.655 823.771C523.389 823.048 519.942 820.668 518.236 819.183C441.186 752.151 413.988 653.709 406.105 561.21Z" fill="#FEFEFE"/>
<path d="M431.39 403.163C532.934 357.727 682.732 355.544 789.575 387.001C827.535 398.178 876.627 418.582 895.239 452.233C902.75 465.81 901.894 474.678 901.165 489.206C901.383 503.251 900.677 516.899 900.166 530.918C896.591 530.958 890.635 530.869 887.33 531.367C873.788 532.058 864.677 534.937 852.126 538.927C845.539 541.872 839.155 544.713 832.703 547.897C828.309 548.526 820.73 552.059 816.524 553.915C807.654 557.835 798.25 560.276 789.349 563.887C785.414 564.255 769.499 568.464 764.742 569.59C753.053 572.285 741.259 574.6 729.382 576.534C673.588 585.561 604.982 585.895 549.034 578.381C490.052 569.854 425.206 554.779 382.432 515.283C371.891 505.549 370.45 495.362 363.223 487.358C361.941 472.518 363.103 464.468 369.839 451.141C373.628 446.762 375.469 442.653 380.521 437.101C396.79 421.331 410.02 413.099 431.39 403.163Z" fill="#FEFEFE"/>
<path d="M852.126 538.927C854.725 535.019 874.877 522.383 881.359 516.144C887.45 510.29 897.883 491.874 901.165 489.206C901.383 503.251 900.677 516.899 900.166 530.919C896.591 530.958 890.635 530.869 887.33 531.367C873.788 532.058 864.677 534.937 852.126 538.927Z" fill="#EBEAE8"/>
<path d="M412.263 494.116C391.633 461.997 420.242 432.214 451.504 417.637C541.492 375.68 658.674 374.524 755.443 396.678C799.354 406.73 883.77 441.106 852.825 493.158C842.227 513.456 807.105 530.472 783.91 538.072C699.215 565.825 598.29 566.686 511.356 547.01C478.295 539.526 429.76 521.38 412.263 494.116Z" fill="#E1BA81"/>
<path d="M412.263 494.116C391.633 461.997 420.242 432.214 451.504 417.637C541.492 375.68 658.674 374.524 755.443 396.678C799.354 406.73 883.77 441.106 852.825 493.158C850.797 485.686 847.882 476.262 842.429 470.034C814.293 437.901 754.381 423.408 711.597 416.991C690.262 413.791 649.188 410.743 626.857 411.297C567.344 412.774 492.845 421.605 443.239 452.651C424.776 464.206 415.689 474.665 412.263 494.116Z" fill="#D4CDC2"/>
<path d="M662.111 437.509C663.144 437.47 664.177 437.436 665.21 437.406C709.118 436.142 777.052 443.797 812.573 470.252C825.853 480.261 826.626 496.685 813.031 506.653C764.517 542.221 681.173 546.569 621.9 546.289C574.989 546.257 507.521 538.8 466.944 515.086C454.944 508.073 456.598 495.082 471.858 491.619C490.709 487.341 510.085 490.591 529.186 488.89C545.371 487.769 584.047 480.101 594.669 468.609C616.816 444.649 623.366 439.62 662.111 437.509Z" fill="#31180E"/>
<path d="M537.255 432.034C546.912 431.43 567.328 432.08 570.151 443.008C570.598 444.813 570.212 446.701 569.079 448.249C565.73 452.891 557.785 454.286 552.175 455.475C519.764 459.051 499.3 437.875 537.255 432.034Z" fill="#31180E"/>
<path d="M541.981 435.351C548.638 435.016 559.144 434.743 562.922 440.701C563.169 443.6 563.376 442.42 561.699 445.274C556.956 444.104 554.638 442.262 549.939 440.77C545.904 439.488 543.254 440.601 540.631 438.85C540.369 436.914 540.519 437.458 541.981 435.351Z" fill="#E1BA81"/>
<path d="M478.797 461.487C498.705 461.208 504.582 474.208 484.208 476.91C478.697 476.82 467.52 476.644 465.52 469.951C463.734 463.972 473.754 462.137 478.797 461.487Z" fill="#31180E"/>
<path d="M482.107 464.017C486.03 463.963 488.847 464.038 491.875 466.298C493.29 468.881 493.044 467.727 492.667 470.707C490.651 470.62 484.458 467.834 482.75 466.506C481.727 465.711 482.142 465.679 482.107 464.017Z" fill="#E1BA81"/>
<path d="M591.054 426.012C597.225 425.693 602.703 426.387 606.431 431.272C606.959 436.248 602.641 436.755 598.144 437.746C592.23 438.03 586.954 437.61 583.255 432.923C582.425 428.016 586.712 427.251 591.054 426.012Z" fill="#31180E"/>
<path d="M592.599 428.112C597.964 427.08 602.59 427.612 603.727 432.815C601.548 432.361 597.091 430.33 593.221 429.372L592.599 428.112Z" fill="#E1BA81"/>
<path d="M522.644 460.993C529.306 460.153 530.772 460.931 537.019 463.233L538.033 465.71C535.902 477.359 505.327 469.677 522.644 460.993Z" fill="#31180E"/>
<path d="M522.644 460.993C529.306 460.153 530.773 460.931 537.019 463.233C534.763 465.953 535.362 465.64 532.269 466.578C529.922 465.889 528.011 463.222 526.736 461.385L522.644 460.993Z" fill="#522D23"/>
<path d="M660.881 420.64C664.99 420.938 665.758 421.094 669.636 422.245C671.738 424.415 671.603 424.825 671.637 427.182C667.68 432.129 654.546 430.728 652.38 425.163L653.294 423.678C656.518 421.672 657.169 421.553 660.881 420.64Z" fill="#522D23"/>
<path d="M660.881 420.64C664.99 420.938 665.758 421.094 669.636 422.245C668.967 423.823 669.047 423.882 667.672 425.142C663.113 425.972 661.293 424.714 660.881 420.64Z" fill="#7A2F19"/>
<path d="M439.07 481.383C443.608 481.043 451.98 481.209 452.811 486.312C451.828 488.226 451.073 488.346 448.873 489.441C444.309 490.189 437.051 490.219 435.531 485.435C436.185 483.146 436.857 482.96 439.07 481.383Z" fill="#31180E"/>
<path d="M560.97 459.56C567.094 458.911 569.4 458.611 575.031 461.162C575.873 469.18 561.712 469.579 558.354 463.59C558.863 460.959 558.629 461.83 560.97 459.56Z" fill="#4C1A0E"/>
<path d="M560.97 459.56C567.094 458.911 569.4 458.611 575.031 461.162C570.418 461.273 574.847 461.651 570.243 462.878C565.4 461.927 566.887 459.959 560.97 459.56Z" fill="#522D23"/>
<path d="M494.834 446.663C498.887 447.023 503.449 447.36 503.314 451.857C501.779 453.885 500.783 453.967 498.092 454.95C493.527 454.863 492.152 455.083 488.911 452.382C487.994 450.261 487.98 451.288 488.925 449.197C491.138 447.4 491.835 447.42 494.834 446.663Z" fill="#522D23"/>
<path d="M469.238 451.234C472.671 451.909 475.387 452.031 476.794 455.18C475.285 457.467 475.774 456.749 472.681 458.145C469.227 458.107 465.282 458.023 464.624 454.445C465.849 452.336 466.636 452.29 469.238 451.234Z" fill="#31180E"/>
<path d="M503.455 475.322C504.32 475.279 505.185 475.252 506.05 475.241C508.729 475.216 511.454 475.401 513.423 477.1C513.917 479.351 513.973 478.448 512.191 480.911C508.138 481.413 505.334 481.945 502.121 479.468C501.724 477.072 501.768 477.912 503.455 475.322Z" fill="#31180E"/>
<path d="M624.16 425.189C624.87 425.145 625.581 425.109 626.291 425.08C629.351 424.959 631.74 424.79 634.033 426.661C634.532 429.117 634.599 428.128 633.117 430.655L632.315 430.703C628.967 430.881 625.777 431.2 623.218 429.183C622.701 426.703 622.605 427.718 624.16 425.189Z" fill="#4C1A0E"/>
<path d="M735.499 431.149C739.009 431.268 741.867 431.164 743.993 433.879C743.666 436.06 743.772 435.372 741.703 437.308C738.034 437.289 735.17 437.735 732.814 434.928C733.441 432.365 733.098 433.248 735.499 431.149Z" fill="#31180E"/>
<path d="M444.714 469.124C448.211 469.031 452.482 469.037 453.698 472.281L452.164 474.224C449.071 474.487 446.374 474.764 443.893 473.117C443.202 470.949 443.347 471.73 444.714 469.124Z" fill="#4C1A0E"/>
<path d="M578.876 154.558C672.589 134.279 754.928 140.841 839.185 185.73C854.244 193.755 878.009 209.202 889.869 220.126C896.464 225.238 902.487 230.686 908.481 236.31C957.813 282.605 988.135 342.243 1003.18 404.154C1003.32 404.734 1003.17 405.446 1003.07 406.022L1001.98 406.615C1004.43 407.933 1003.62 407.275 1004.82 410.108C987.362 413.743 968.832 415.952 951.234 419.002C946.314 419.856 932.959 421.633 928.671 422.871L926.402 423.469C920.416 425.141 914.46 426.895 908.534 428.73L907.332 426.899C885.693 331.935 795.313 240.714 691.855 211.289C678.792 207.573 662.579 203.296 648.912 202.422C634.669 202.585 621.682 202.968 607.613 205.502C571.833 211.949 537.849 230.98 512.486 253.971C494.845 269.961 479.301 290.069 466.999 309.454C447.019 310.027 412.199 311.875 393.38 310.637L389.578 309.125L384.83 306.694L374.746 300.057C379.706 290.507 385.276 281.218 391.429 272.235C429.926 216.527 490.16 173.243 562.324 157.981C567.794 156.667 573.315 155.526 578.876 154.558Z" fill="#6B4423"/>
<path d="M578.876 154.558C672.589 134.279 754.927 140.841 839.185 185.73C854.244 193.755 878.009 209.202 889.869 220.126C896.463 225.238 902.487 230.686 908.481 236.31C957.813 282.605 988.135 342.243 1003.18 404.154C1003.32 404.734 1003.17 405.446 1003.07 406.022L1001.98 406.615C1004.43 407.933 1003.61 407.275 1004.82 410.108C987.361 413.743 968.832 415.952 951.233 419.002C946.314 419.856 932.959 421.633 928.67 422.871L926.402 423.469C920.416 425.141 914.46 426.895 908.533 428.73L907.332 426.899C909.78 423.88 912.454 425.041 915.474 422.054C918.576 420.791 922.068 420.071 925.381 419.257C924.412 414.015 923.27 408.797 921.971 403.612C898.454 311.178 848.806 239.663 757.714 188.566L750.943 185.22C712.105 166.764 674.24 155.276 630.023 153.468C615.721 152.884 597.657 152.862 583.631 155.07L578.876 154.558Z" fill="#C17B3E"/>
<path d="M578.876 154.558C672.589 134.279 754.927 140.841 839.185 185.73C854.244 193.755 878.009 209.202 889.869 220.126C889.809 222.213 892.896 228.413 893.279 230.823C898.056 260.995 856.64 256.813 839.5 243.261C833.206 238.283 828.549 233.748 823.066 229.173C815.555 223.019 807.819 217.096 799.857 211.414C785.932 201.371 774.27 195.215 758.838 186.996L757.714 188.566L750.943 185.22C712.105 166.764 674.24 155.276 630.023 153.468C615.721 152.884 597.657 152.862 583.631 155.07L578.876 154.558Z" fill="#AB6A21"/>
<path d="M750.943 185.22C754.659 184.253 755.457 185.054 758.838 186.997L757.714 188.567L750.943 185.22Z" fill="#D8895C"/>
<path d="M1001.98 406.615C1004.43 407.934 1003.62 407.276 1004.82 410.108C987.361 413.743 968.832 415.952 951.234 419.002C946.314 419.856 932.959 421.634 928.671 422.871L926.402 423.469C920.416 425.141 914.46 426.895 908.534 428.73L907.332 426.899C909.781 423.88 912.454 425.041 915.474 422.054C918.576 420.792 922.069 420.071 925.381 419.258C950.513 414.577 976.658 411.19 1001.98 406.615Z" fill="#4C1A0E"/>
<path d="M583.631 155.071C597.657 152.862 615.721 152.884 630.023 153.468C674.24 155.277 712.105 166.764 750.943 185.22L757.714 188.567C848.806 239.663 898.454 311.178 921.971 403.612C923.27 408.798 924.412 414.015 925.381 419.258C922.069 420.071 918.576 420.792 915.474 422.054C911.245 411.249 907.272 392.306 903.171 380.044C877.115 302.106 820.37 231.046 738.49 192.613C681.111 165.682 613.114 157.054 550.382 174.586C494.925 190.485 446.752 221.963 413.088 264.299C403.381 276.395 392.62 293.459 384.83 306.694L374.746 300.057C379.706 290.507 385.276 281.218 391.429 272.235C429.926 216.527 490.16 173.244 562.324 157.982C567.794 156.668 573.315 155.526 578.876 154.558L583.631 155.071Z" fill="#A0631F"/>
<path d="M562.324 157.982C567.794 156.668 573.316 155.526 578.877 154.559L583.631 155.071C579.496 155.958 565.212 159.504 562.324 157.982Z" fill="#BA6841"/>
<path d="M393.38 310.637L394.026 309.595C441.283 234.053 537.957 187.694 634.79 199.761C638.52 200.226 645.774 200.856 648.912 202.422C634.669 202.585 621.682 202.968 607.614 205.502C571.834 211.949 537.849 230.98 512.486 253.971C494.845 269.961 479.301 290.069 466.999 309.454C447.019 310.027 412.199 311.875 393.38 310.637Z" fill="#31180E"/>
<path d="M374.746 300.057L384.829 306.694L389.578 309.125L393.379 310.637C412.199 311.875 447.019 310.027 466.999 309.454C463.954 317.586 451.006 340.167 446.16 348.947C442.489 358.65 429.438 394.775 431.39 403.163C410.02 413.099 396.79 421.331 380.521 437.101C375.469 442.653 373.628 446.762 369.839 451.141C363.103 464.468 361.941 472.518 363.223 487.358C363.35 557.27 371.756 615.526 393.348 682.464L398.541 697.43C395.883 697.283 390.483 696.293 387.642 695.845C373.697 691.639 367.493 688.677 355.691 680.993C344.819 680.231 327.404 658.357 320.472 650.887C287.55 634.892 277.421 590.009 279.098 559.094C280.027 534.824 286.297 513.282 299.388 491.748C303.691 484.669 309.881 477.483 314.473 470.517C321.734 459.504 328.783 445.853 332.967 433.607C340.544 411.435 343.455 387.456 349.737 364.896C351.038 360.225 353.475 349.706 355.769 345.765L356.765 341.754C362.306 326.907 368.01 314.436 374.746 300.057Z" fill="#3D2817"/>
<path d="M374.746 300.057L384.83 306.694L389.578 309.125L393.38 310.637C412.199 311.875 447.019 310.027 466.999 309.454C463.954 317.586 451.006 340.167 446.161 348.947C442.489 358.65 429.438 394.775 431.39 403.163C410.02 413.099 396.79 421.331 380.521 437.101C375.469 442.653 373.628 446.762 369.839 451.141C361.364 453.674 356.066 463.202 350.206 469.241C347.564 468.393 346.08 467.872 343.257 467.428C345.424 464.318 346.739 462.693 349.308 459.831C349.491 456.85 350.869 454.655 349.628 452.131C343.459 457.309 339.234 461.419 334.295 467.684C332.844 468.026 331.269 468.207 329.777 468.426C308.496 492.995 294.378 519.762 291.894 551.023C291.345 557.918 287.183 567.113 279.099 559.094C280.028 534.824 286.297 513.282 299.388 491.748C303.691 484.669 309.881 477.483 314.473 470.517C321.734 459.504 328.783 445.853 332.967 433.607C340.544 411.435 343.456 387.456 349.738 364.896C351.038 360.225 353.475 349.706 355.769 345.765L356.766 341.754C362.306 326.907 368.01 314.436 374.746 300.057Z" fill="#31180E"/>
<path d="M374.746 300.057L384.83 306.694L389.578 309.125L393.38 310.637C412.199 311.875 447.019 310.027 466.999 309.454C463.954 317.586 451.006 340.167 446.161 348.947C431.919 348.903 378.609 352.928 369.468 349.508C364.337 346.782 361.499 344.977 356.766 341.754C362.306 326.907 368.011 314.436 374.746 300.057Z" fill="#A0631F"/>
<path d="M374.746 300.057L384.83 306.694L389.578 309.125C384.809 318.16 380.537 326.614 376.268 335.881C375.231 338.133 370.73 347.803 369.468 349.508C364.337 346.782 361.499 344.977 356.766 341.754C362.306 326.907 368.011 314.436 374.746 300.057Z" fill="#C17B3E"/>
<path d="M398.005 325.916C399.286 326.41 400.069 326.951 401.204 327.647C403.387 332.043 401.047 334.04 397.05 336.736C389.661 333.051 393.155 329.48 398.005 325.916Z" fill="#4C1A0E"/>
<path d="M355.769 345.765C359.753 348.156 364.217 350.706 368.084 353.177C364.176 364.624 359.37 378.147 356.64 389.715C349.71 419.082 346.734 441.68 329.777 468.425C308.496 492.995 294.378 519.761 291.894 551.022C291.345 557.917 287.183 567.113 279.099 559.094C280.028 534.824 286.297 513.281 299.388 491.747C303.691 484.669 309.881 477.482 314.473 470.517C321.734 459.504 328.783 445.853 332.967 433.607C340.544 411.435 343.456 387.456 349.738 364.896C351.038 360.225 353.475 349.705 355.769 345.765Z" fill="#A0631F"/>
<path d="M349.628 452.131C352.239 448.587 375.448 434.349 380.094 434.299L379.736 435.767L380.521 437.101C375.469 442.653 373.628 446.762 369.839 451.14C361.364 453.674 356.066 463.201 350.206 469.241C347.564 468.393 346.08 467.872 343.256 467.428C345.423 464.318 346.739 462.693 349.308 459.83C349.49 456.85 350.869 454.655 349.628 452.131Z" fill="#4C1A0E"/>
<path d="M349.628 452.131C352.24 448.587 375.449 434.349 380.094 434.299L379.737 435.767C368.582 441.612 357.975 451.212 349.308 459.83C349.491 456.85 350.869 454.655 349.628 452.131Z" fill="#6B4423"/>
<path d="M349.628 452.131C350.869 454.656 349.49 456.85 349.308 459.831C346.739 462.693 345.423 464.318 343.256 467.429C346.08 467.873 347.564 468.393 350.206 469.241C317.795 515.141 307.578 561.521 320.713 614.917C325.344 633.748 343.914 673.483 365.969 680.07C372.05 685.4 385.991 688.075 388.056 692.268L387.642 695.845C373.697 691.639 367.493 688.677 355.691 680.993C344.819 680.231 327.404 658.357 320.472 650.888C287.55 634.892 277.421 590.009 279.098 559.094C287.182 567.113 291.345 557.918 291.893 551.023C294.378 519.762 308.495 492.995 329.776 468.426C331.269 468.207 332.844 468.026 334.295 467.684C339.234 461.419 343.458 457.309 349.628 452.131Z" fill="#31180E"/>
<path d="M329.776 468.425C331.269 468.207 332.844 468.025 334.295 467.684C327.232 477.332 320.111 487.509 314.7 497.966C302.065 522.385 294.435 568.274 300.514 594.606C300.603 594.992 300.701 595.377 300.807 595.76C301.425 612.536 311.891 635.975 320.472 650.887C287.55 634.891 277.421 590.008 279.098 559.094C287.182 567.113 291.345 557.917 291.893 551.022C294.378 519.761 308.495 492.995 329.776 468.425Z" fill="#3D2817"/>
<path d="M349.628 452.131C350.869 454.656 349.491 456.85 349.308 459.831C346.74 462.693 345.424 464.318 343.257 467.429C312.664 506.267 305.056 549.529 309.589 595.848C307.556 597.585 308.547 597.169 305.864 597.717C303.216 597.109 303.027 597.107 300.807 595.761C300.701 595.377 300.603 594.993 300.514 594.606C294.435 568.274 302.066 522.386 314.701 497.966C320.112 487.51 327.232 477.332 334.295 467.684C339.235 461.419 343.459 457.309 349.628 452.131Z" fill="#D4B896"/>
<path d="M309.588 595.847C316.696 631.508 325.274 655.274 355.692 680.993C344.819 680.23 327.404 658.357 320.472 650.887C311.891 635.975 301.425 612.536 300.807 595.76C303.027 597.106 303.215 597.108 305.864 597.716C308.547 597.169 307.556 597.585 309.588 595.847Z" fill="#A0631F"/>
<path d="M365.969 680.07C372.247 680.083 385.922 693.21 393.17 688.797C394.104 686.744 393.587 684.738 393.348 682.464L398.541 697.43C395.883 697.283 390.483 696.293 387.642 695.845L388.056 692.267C385.991 688.075 372.05 685.4 365.969 680.07Z" fill="#4C1A0E"/>
<path d="M634.398 433.519C617.604 478.574 652.381 503.724 671.869 510.667C638.211 461.527 679.617 413.596 679.617 413.596C679.617 413.596 712.16 377.558 721.867 348.859C739.861 293.808 702.928 267.389 672.469 235.951C648.102 210.801 650.377 172.802 654.56 156.946C621.199 183.285 628.185 226.521 660.167 259.593C692.15 292.664 695.063 313.058 690.239 349.194C685.271 386.411 647.43 402.512 634.398 433.519Z" fill="white" fill-opacity="0.7"/>
<path d="M473.833 320.371C458.044 327.225 436.549 322.695 427.776 319.573C415.552 316.474 427.667 309.286 453.328 310.534C478.989 311.781 477.337 278.432 501.736 283.174C526.136 287.916 521.286 314.024 523.426 334.532C525.566 355.039 545.567 367.986 545.789 328.504C546.011 289.021 540.32 256.813 570.53 244.544C602.905 232.83 608.876 319.699 609.257 331.516C609.638 343.333 607.414 351.065 621.021 353.237C638.03 355.952 625.014 276.603 636.21 274.905C647.405 273.207 646.654 292.955 647.081 333.221C647.507 373.487 614.815 372.253 600.321 365.037C585.828 357.822 584.483 261.241 573.594 261.62C564.883 261.923 563.001 310.073 563.149 334.111C561.679 345.341 553.237 368.247 531.236 370.023C503.734 372.244 504.515 310.508 504.493 308.472C504.472 306.436 503.455 296.694 495.246 297.532C487.036 298.369 493.571 311.803 473.833 320.371Z" fill="white" fill-opacity="0.7"/>
<path d="M749.467 262.387C737.357 256.409 739.135 265.041 741.539 270.104C741.564 272.472 743.558 279.242 751.334 287.371C761.053 297.533 750.175 329.232 774.681 343.975C799.187 358.717 804.654 300.229 812.955 297.509C821.256 294.789 825.633 314.746 839.748 316.438C853.862 318.131 881.081 316.79 881.354 312.312C881.627 307.835 871.033 305.842 856.305 306.788C844.523 307.544 837.018 300.763 834.739 297.278C832.22 291.426 823.66 279.761 809.564 279.91C796.706 275.835 789.291 301.708 787.191 315.153C780.584 326.541 772.282 329.261 774.257 303.973C776.231 278.685 764.604 269.859 749.467 262.387Z" fill="white" fill-opacity="0.7"/>
<path d="M245.765 986.418C249.238 992.873 252.803 998.935 256.51 1004.64C279.424 1036.21 311.704 1056.29 339.122 1068.63C353.737 1075.21 366.902 1079.55 376.404 1082.25C381.153 1083.6 384.981 1084.53 387.612 1085.13C388.927 1085.43 389.943 1085.64 390.624 1085.78C390.964 1085.85 391.222 1085.9 391.391 1085.93C391.475 1085.95 391.537 1085.96 391.577 1085.96C391.597 1085.97 391.612 1085.97 391.62 1085.97C391.624 1085.97 391.626 1085.97 391.628 1085.97H391.629C391.628 1085.98 391.623 1086 391.445 1086.99C413.873 1092.1 439.723 1096.49 469.817 1100.59L469.344 1104.06L468.871 1107.53C400.656 1098.22 353.288 1087.38 318.006 1069.53C288.945 1054.82 268.219 1035.44 250.756 1008.63C249.162 1006.43 247.612 1004.17 246.108 1001.86L246.397 1001.68C244.083 997.841 241.822 993.862 239.6 989.734L245.765 986.418Z" fill="#9D9286"/>
<path fill-rule="evenodd" clip-rule="evenodd" d="M378.676 748.079C394.758 747.026 406.293 746.272 422.494 748.815C453.806 801.323 479.94 844.073 548.025 860.677C609.977 875.784 674.16 875.938 734.804 855.208C744.418 851.891 757.147 846 765.474 840.871C780.622 832.405 786.606 825.483 797.139 813.293L799.302 814.049C799.565 816.884 802.397 823.042 803.155 826.392C806.265 840.228 805.919 850.573 803.666 864.282C833.101 871.043 839.816 875.53 856.618 897.477C859.562 900.674 865.991 904.151 868.117 907.695C878.595 925.188 870.236 945.732 859.398 960.891C836.654 992.675 798.934 1001.56 766.102 1021.78C746.606 1034.74 728.247 1048.21 707.203 1059.16C631.061 1098.78 543.132 1110.34 455.159 1098.52C447.751 1097.43 440.617 1096.32 433.742 1095.18C419.948 1092.73 406.176 1089.72 392.473 1086.16C381.873 1083.41 372.337 1080.79 363.757 1078.31C356.421 1075.82 348.041 1072.64 339.122 1068.63C313.14 1056.94 282.794 1038.29 260.187 1009.5C256.62 1004.32 252.951 998.738 249.356 992.887C248.147 990.776 246.95 988.621 245.765 986.419L245.546 986.536C230.252 960.363 217.528 929.982 221.79 905.997C226.239 880.967 234.302 861.654 245.347 839.218C252.178 825.343 251.118 808.778 261.608 795.678C269.215 785.815 280.117 777.83 290.988 770.869C311.406 757.789 334.144 749.35 359.326 747.524C365.203 747.096 372.901 748.454 377.957 748.127L378.676 748.079ZM294.466 873.976C245.494 926.189 275.645 980.887 323.488 1020.27C342.105 1035.6 356.894 1039.52 380.195 1048.42C470.635 1082.95 553.303 1077.4 632.173 1046.84C639.356 1044.05 650.091 1039.96 656.749 1036.25C666.917 1030.6 681.586 1022.12 693.217 1011.77C688.2 1009.51 681.132 1006.51 676.403 1004.06C592.846 1028.54 489.226 1017.79 410.259 983.886C407.149 982.549 394.71 976.37 392.368 976.337C367.795 976.016 335.156 979.72 310.703 980.991C319.989 968.72 332.766 953.795 342.934 941.992C323.195 922.793 316.519 908.542 316.81 882.529C308.005 880.373 302.579 877.81 294.661 874.069L294.466 873.976Z" fill="#9D9286"/>
</svg>
